<?xml version="1.0" encoding="utf-8"?>
<!-- Generator: Adobe Illustrator 24.3.0, SVG Export Plug-In . SVG Version: 6.00 Build 0)  -->
<svg version="1.1" xmlns="http://www.w3.org/2000/svg" xmlns:xlink="http://www.w3.org/1999/xlink" x="0px" y="0px"
	 viewBox="0 0 750 550" style="enable-background:new 0 0 750 550;" xml:space="preserve">
<style type="text/css">
	.st0{fill:#534998;}
	.st1{fill:#C68F0A;}
	.st2{fill:#C58E0A;}
	.st3{fill:#544897;}
	.st4{fill:#FFFFFF;}
	.st5{fill:none;}
</style>
<g id="G-ARCH">
</g>
<g id="G-TOMO">
</g>
<g id="S-PHOT">
</g>
<g id="S-DISCO">
</g>
<g id="L-HEX">
	<g>
		<g>
			<g>
				<g>
					<path class="st0" d="M473.1,208.1c-0.4-3.3-1-6.6-1.5-9.9c-0.7-3.3-1.7-6.5-2.5-9.7c-1-3.2-2.3-6.3-3.5-9.4
						c-5.3-12.3-13.1-23.4-22.8-32.5c-9.7-9.1-21.1-16.1-33.4-20.6c-12.3-4.5-25.4-6.4-38.2-5.8c-12.8,0.6-25.4,3.8-36.8,9.2
						c-11.4,5.3-21.6,12.8-30.1,21.9c-8.5,9.1-7.1,10,1.8,1.8c8.8-8.2,19.3-14.6,30.4-18.6c11.2-4,23.1-5.7,34.7-5.1
						c23.4,1.2,45.2,11.9,60.4,28.3c7.6,8.2,13.7,17.8,17.7,28.1c4,10.3,6.1,21.3,6.1,32.4c0,11.1-2.1,22.1-6.1,32.4
						c-0.3,0.8-0.6,1.5-0.9,2.3c-3.1,7.3-7.2,14.2-12.2,20.5c-1.4,1.8-3,3.6-4.6,5.3c-15.2,16.5-37.1,27.2-60.4,28.3
						c-8.1,0.4-16.3-0.3-24.3-2.1c-3.5-0.8-7-1.8-10.4-3c-4.1-1.5-8.1-3.3-12-5.3c-6.7-3.6-12.9-8-18.5-13.2
						c-8.8-8.2-10.2-7.3-1.8,1.8c4.5,4.8,9.5,9.1,14.9,13c4.8,3.4,9.9,6.4,15.2,8.9c0.7,0.4,1.5,0.7,2.2,1
						c10.8,4.8,22.6,7.6,34.6,8.2c12.8,0.6,25.9-1.3,38.2-5.8c12.3-4.5,23.7-11.5,33.4-20.6c8.5-7.9,15.5-17.4,20.7-27.9v0
						c0.7-1.5,1.4-3,2.1-4.5c1.2-3.1,2.5-6.2,3.5-9.4c0.4-1.6,0.9-3.1,1.3-4.7c0.5-1.7,0.9-3.3,1.3-5c0.5-3.3,1.1-6.6,1.5-9.9
						l0.5-10L473.1,208.1z"/>
				</g>
				<g>
					<path class="st0" d="M388.7,181c0.3-0.6,0.5-1.2,0.7-1.8c0.2-0.6,0.4-1.3,0.5-1.9c0.1-0.6,0.2-1.3,0.3-1.9
						c0.3-2.6,0.1-5.3-0.7-7.8c-0.7-2.5-2-4.8-3.7-6.8c-1.6-2-3.7-3.6-5.9-4.7c-2.2-1.1-4.7-1.8-7.2-2.1c-2.5-0.2-4.9,0.1-7.3,0.8
						c-2.3,0.7-2.2,1,0.1,0.5c2.3-0.5,4.7-0.6,7-0.2c2.3,0.4,4.5,1.3,6.4,2.5c3.9,2.5,6.5,6.5,7.5,10.8c0.5,2.1,0.6,4.4,0.2,6.5
						c-0.3,2.2-1.1,4.2-2.1,6.1c-1.1,1.9-2.5,3.5-4.2,4.9c-0.1,0.1-0.3,0.2-0.4,0.3c-1.2,0.9-2.6,1.7-4.1,2.3
						c-0.4,0.2-0.9,0.3-1.3,0.5c-4.2,1.3-9,1-13.1-1.1c-1.4-0.7-2.7-1.6-3.9-2.7c-0.5-0.5-1-1-1.5-1.5c-0.6-0.7-1.1-1.4-1.5-2.1
						c-0.8-1.3-1.4-2.6-1.8-4.1c-0.7-2.3-1-2.2-0.5,0.1c0.3,1.3,0.7,2.5,1.3,3.7c0.5,1.1,1.1,2.1,1.7,3c0.1,0.1,0.2,0.3,0.3,0.4
						c1.4,1.9,3.1,3.5,5.1,4.8c2.1,1.4,4.5,2.3,7.1,2.8c2.5,0.4,5.2,0.4,7.7-0.2c2.2-0.5,4.4-1.4,6.3-2.7l0,0
						c0.3-0.2,0.5-0.4,0.8-0.6c0.5-0.4,1-0.8,1.5-1.3c0.2-0.2,0.5-0.4,0.7-0.7c0.2-0.2,0.5-0.5,0.7-0.7c0.4-0.5,0.8-1,1.2-1.5
						l1.1-1.7L388.7,181z"/>
				</g>
				<g>
					<path class="st0" d="M321.4,178.7c-5.7,0.1-11.4,0.1-17.1,0.2c1.9-1.1,4.1-2,6.5-2.4c1.3-0.2,2.7-0.2,4.2,0
						c0.1,0,0.3,0,0.6,0.1C316.9,176.8,319,177.3,321.4,178.7z"/>
					<path class="st0" d="M303.7,179.1l0.6-0.3c2.2-1.3,4.4-2.1,6.6-2.4c1.4-0.2,2.9-0.2,4.2,0c0.1,0,0.4,0,0.6,0.1
						c1.1,0.2,3.4,0.7,5.8,2.1l0.5,0.3l-0.6,0c-5.7,0.1-11.4,0.1-17.1,0.2L303.7,179.1z M313.1,176.5c-0.7,0-1.5,0-2.2,0.1
						c-2,0.3-4,1-5.9,2c5.3-0.1,10.5-0.1,15.8-0.2c-2.2-1.2-4.1-1.6-5.1-1.8c-0.2,0-0.4-0.1-0.6-0.1
						C314.4,176.6,313.8,176.5,313.1,176.5z"/>
				</g>
				<g>
					<path class="st0" d="M328.2,185.5c-0.3,0-0.7-0.1-1.1,0c-7.1,0.2-14.2,0.1-21.3,0.3l-0.1,0c-0.7,0-1.9,0-3.4,0c0,0,0,0-0.1,0
						c-1.9-0.1-3.8-0.2-5.7-0.2c-0.1,0-0.1-0.1-0.1-0.1c1.3-1.3,1.8-2.5,4.7-4.1c0.1,0,0.3,0,0.5,0c0.1,0,0.2,0,0.3,0
						c6.3-0.1,15.1-0.1,21.2-0.2c0,0,0,0,0,0c1.8,0.9,2.4,1.3,4.1,3.2C327.6,184.7,327.9,185.1,328.2,185.5z"/>
					<path class="st0" d="M302.3,186L302.3,186c-1.2-0.1-2.2-0.1-3.3-0.1c-0.8,0-1.6-0.1-2.4-0.1c-0.1,0-0.2-0.1-0.2-0.2
						c0-0.1,0-0.2,0.1-0.3c0.3-0.3,0.5-0.6,0.8-0.9c0.8-1,1.7-2,4-3.2l0,0l0,0c0.1,0,0.1,0,0.2,0c0.1,0,0.2,0,0.2,0
						c0.1,0,0.2,0,0.3,0c3.2-0.1,7.1-0.1,10.8-0.1c3.6,0,7.4,0,10.3-0.1l0,0l0.1,0c1.8,0.9,2.5,1.3,4.1,3.2c0.3,0.4,0.6,0.8,0.9,1.2
						l0.2,0.3l-0.4-0.1c-0.3,0-0.7-0.1-1.1,0c-3.6,0.1-7.3,0.1-10.9,0.2c-3.4,0-6.9,0-10.4,0.2l-0.1,0
						C305,185.9,303.8,185.9,302.3,186z M296.8,185.4c0.7,0,1.5,0.1,2.2,0.1c1.1,0,2.2,0.1,3.3,0.1l0.1,0c1.5,0,2.7,0,3.4,0l0.1,0
						c3.5-0.1,7-0.1,10.4-0.2c3.6,0,7.2-0.1,10.9-0.2c0.3,0,0.5,0,0.8,0c-0.2-0.3-0.4-0.5-0.7-0.8c-1.6-1.9-2.2-2.2-4-3.1
						c-3,0.1-6.7,0.1-10.3,0.1c-3.8,0-7.6,0-10.8,0.1c-0.1,0-0.2,0-0.3,0c-0.1,0-0.2,0-0.2,0c-0.1,0-0.1,0-0.2,0
						c-2.2,1.2-3,2.1-3.8,3.1C297.2,184.9,297,185.1,296.8,185.4z"/>
				</g>
				<g>
					<path class="st0" d="M330.3,193.1C330.3,193.2,330.2,193.2,330.3,193.1c-8.3,0-16.2-0.1-24.1-0.2c-3.6,0-7.1-0.1-10.7,0
						c-1.1,0-1.5-0.3-1.6-1c0-0.3,0-0.8,0.2-1.3c0.5-2,0.8-2.8,1.6-3.1c0.5-0.2,1.2-0.2,2.3-0.2c10.3,0.1,20.5,0.1,30.9,0.1
						c0,0,0.1,0,0.1,0.1C329.6,189.4,330,191.3,330.3,193.1z"/>
					<path class="st0" d="M330.2,193.4C330.2,193.4,330.2,193.4,330.2,193.4l-5.2-0.1c-6.4-0.1-12.6-0.2-18.8-0.2
						c-4,0-7.3-0.1-10.7,0c-0.7,0-1.7-0.1-1.8-1.1c0-0.4,0.1-0.9,0.2-1.4c0.6-2,0.9-2.9,1.7-3.2c0.5-0.2,1.3-0.2,2.4-0.2
						c8.5,0.1,17.1,0.1,25.4,0.1l5.5,0c0.1,0,0.2,0.1,0.2,0.2c0.6,1.7,1.1,3.5,1.3,5.6l0,0c0,0.1,0,0.1-0.1,0.2
						C330.3,193.4,330.3,193.4,330.2,193.4z M330.1,193.1L330.1,193.1L330.1,193.1L330.1,193.1z M300.7,192.7c1.7,0,3.5,0,5.4,0
						c6.2,0.1,12.4,0.2,18.8,0.2l5.1,0.1c-0.3-2-0.7-3.8-1.3-5.4l-5.4,0c-8.3,0-17,0-25.4-0.1c-1,0-1.8,0-2.2,0.2
						c-0.7,0.3-1,0.9-1.5,3c-0.1,0.4-0.2,0.9-0.2,1.2c0,0.4,0.2,0.8,1.3,0.8c0.1,0,0.1,0,0.2,0C297.2,192.7,298.9,192.7,300.7,192.7
						z"/>
				</g>
				<g>
					<path class="st0" d="M320.1,253.1c-0.2,0.3-0.4,0.5-0.6,0.7c-5.8,6.2-16.9,6.3-22.3,0.5c-0.5-0.5-0.8-1.1-1.2-1.8
						c0.2,0.2,0.4,0.4,0.6,0.5c0.1,0.1,0.1,0.1,0.2,0.1c0.1,0.1,0.2,0.1,0.3,0.1c0.1,0,0.2,0.1,0.3,0.1c0.3,0.1,0.7,0.1,1.1,0.1
						c7.1-0.2,14.1-0.3,21.2-0.4C319.9,253.1,320,253.1,320.1,253.1z"/>
					<path class="st0" d="M307.8,258.8C307.8,258.8,307.8,258.8,307.8,258.8c-4.3,0-8.2-1.6-10.7-4.3c-0.5-0.5-0.9-1.1-1.2-1.8
						l-0.7-1.3l1,1.2c0.1,0.2,0.3,0.3,0.6,0.5c0.1,0.1,0.1,0.1,0.2,0.1l0,0c0.1,0.1,0.2,0.1,0.3,0.1c0.1,0,0.2,0.1,0.3,0.1
						c0.4,0.1,0.7,0.1,1.1,0.1c5.6-0.2,11.4-0.3,16.9-0.3c1.4,0,2.9,0,4.3-0.1c0,0,0.1,0,0.1,0c0,0,0.1,0,0.1,0l0.4,0l-0.2,0.3
						c-0.2,0.2-0.4,0.4-0.6,0.7l-0.1,0.1C316.7,257,312.4,258.8,307.8,258.8z M296.6,253.3c0.2,0.4,0.5,0.7,0.7,1
						c2.4,2.6,6.2,4.1,10.4,4.2c0,0,0.1,0,0.1,0c4.5,0,8.7-1.7,11.5-4.7l0.1-0.1c0.1-0.1,0.2-0.2,0.3-0.4c-1.4,0-2.8,0-4.2,0.1
						c-5.5,0.1-11.3,0.1-16.9,0.3c-0.4,0-0.8,0-1.2-0.1c-0.1,0-0.3-0.1-0.3-0.1c-0.1,0-0.2-0.1-0.4-0.1
						C296.7,253.4,296.7,253.3,296.6,253.3z"/>
				</g>
				<g>
					<path class="st0" d="M323.8,244.3c-0.5,2.1-1,4-1.8,5.7c-0.5,0-1,0.1-1.5,0.1c-1.5,0.1-3.1,0.1-4.7,0.2
						c-1.6,0.1-3.1,0.8-4.7,0.8c-1.8,0-3.5-0.7-5.3-0.7c-3.3-0.1-6.6-0.1-10-0.1c-1.1,0-2.6-0.8-3.2-1.7c0,0,0,0,0,0
						c-1.3-1.7-0.2-4.2,2-4.2c1.4,0,2.8,0,4.2,0c8,0,16,0,24.1,0C323.3,244.3,323.5,244.3,323.8,244.3z"/>
					<path class="st0" d="M311.3,251.2C311.3,251.2,311.3,251.2,311.3,251.2c-1,0-1.9-0.2-2.8-0.4c-0.8-0.2-1.6-0.3-2.5-0.4
						c-2.5-0.1-5-0.1-7.6-0.1c-0.8,0-1.6,0-2.4,0c-1.2,0-2.6-0.8-3.4-1.7l0.1-0.1l-0.1,0.1c-0.7-0.9-0.8-2-0.3-3
						c0.5-0.9,1.4-1.5,2.5-1.5c0,0,0,0,0,0h1.6c0.9,0,1.7,0,2.6,0h0.5c7.7,0,15.7,0,23.6,0c0.2,0,0.3,0,0.5,0c0.1,0,0.2,0,0.3,0
						l0.2,0l-0.1,0.2c-0.4,1.8-0.9,3.8-1.8,5.8l0,0.1l-0.1,0c-0.5,0-1,0.1-1.5,0.1c-0.3,0-0.7,0-1,0c-1.2,0-2.4,0.1-3.6,0.2
						c-0.7,0.1-1.4,0.2-2,0.4C313,251,312.1,251.2,311.3,251.2z M299.5,250c2.2,0,4.3,0,6.5,0.1c0.8,0,1.7,0.2,2.5,0.4
						c0.9,0.2,1.8,0.4,2.7,0.4h0c0.8,0,1.7-0.2,2.6-0.4c0.7-0.2,1.4-0.3,2.1-0.4c1.2-0.1,2.4-0.1,3.6-0.2c0.3,0,0.7,0,1,0
						c0.4,0,0.9,0,1.4-0.1c0.8-1.8,1.3-3.7,1.7-5.4c0,0,0,0,0,0c-0.2,0-0.4,0-0.5,0c-7.9,0-15.9,0-23.6,0H299c-0.9,0-1.7,0-2.6,0
						h-1.6c0,0,0,0,0,0c-0.9,0-1.7,0.5-2.1,1.3c-0.4,0.8-0.3,1.8,0.3,2.6l0,0c0.7,0.9,2,1.6,3.1,1.6c0.8,0,1.6,0,2.4,0
						C298.8,250,299.2,250,299.5,250z"/>
				</g>
				<g>
					<path class="st0" d="M325.2,235.8c-0.1,1.2-0.2,2.4-0.4,3.7c-0.1,0.6-0.6,1-1.1,1c-0.6,0-1.4,0-2.3,0c-9.4,0-18.8,0-28.3-0.1
						c-1.6,0-3.1-1.3-3.2-2.9c0-0.5-0.1-0.9-0.1-1.4c-0.1-0.9,0.6-1.7,1.6-1.7c3.2,0,6.5,0,9.7,0c7.7,0,15.3,0,22.9,0
						C324.7,234.5,325.2,235.1,325.2,235.8z"/>
					<path class="st0" d="M322.4,240.7c-0.3,0-0.6,0-0.9,0h-0.1c-7,0-14.1,0-21-0.1l-7.3,0c-1.7,0-3.2-1.4-3.4-3.1l0-0.3
						c0-0.4-0.1-0.8-0.1-1.2c0-0.5,0.1-1,0.4-1.3c0.3-0.4,0.8-0.6,1.3-0.6c0,0,0,0,0,0c3.1,0,6.3,0,9.4,0h0.3c3.5,0,7,0,10.5,0
						c4.1,0,8.2,0,12.3,0c0.4,0,0.8,0.2,1,0.5c0.3,0.3,0.4,0.7,0.4,1l0,0c-0.1,1.2-0.2,2.5-0.4,3.7c-0.1,0.6-0.6,1.1-1.3,1.2
						C323.3,240.7,322.8,240.7,322.4,240.7z M291.3,234.6c-0.4,0-0.8,0.2-1,0.5c-0.3,0.3-0.4,0.7-0.4,1.1c0,0.4,0.1,0.8,0.1,1.2
						l0,0.3c0.2,1.5,1.5,2.8,3,2.8l7.3,0c6.9,0,14,0,21,0.1l0.1,0c0.9,0,1.6,0,2.2,0c0.5,0,0.9-0.4,1-0.9c0.2-1.2,0.3-2.4,0.4-3.7
						l0,0c0-0.3-0.1-0.6-0.3-0.8c-0.2-0.2-0.5-0.3-0.8-0.3c-4.1,0-8.2,0-12.3,0c-3.5,0-7,0-10.5,0h-0.3
						C297.7,234.7,294.5,234.6,291.3,234.6C291.3,234.6,291.3,234.6,291.3,234.6z"/>
				</g>
				<g>
					<path class="st0" d="M323.1,229.8c-0.3,0.8,0.1,1.2,0,1.7c-0.5,1.4-6.4,0-9.2,0.1c-7.8,0.2-15.4,0.2-22.7-0.1
						c-0.9,0-1.6-0.8-1.6-1.7v-4c0-0.6,0.5-1.1,1.1-1.1H324c0.5,0,0.8,0,0.8,0s0,0.4,0,1c0,1.8,0.2,1.9,0,2.3
						C324.4,229,323.5,228.9,323.1,229.8z"/>
					<path class="st0" d="M321,232.3c-1,0-2.3-0.1-3.6-0.3c-1.3-0.1-2.6-0.3-3.5-0.2c-7.5,0.2-15.1,0.2-22.7-0.1
						c-1,0-1.8-0.8-1.8-1.9v-4c0-0.7,0.6-1.2,1.2-1.2h34.2v1.2c0,0.8,0,1.3,0.1,1.6c0,0.4,0,0.5-0.1,0.8c-0.2,0.5-0.6,0.7-0.9,0.9
						c-0.3,0.2-0.6,0.3-0.8,0.8c-0.2,0.4-0.1,0.7,0,1c0.1,0.2,0.1,0.5,0,0.7C323.1,232.1,322.2,232.3,321,232.3z M314.2,231.4
						c0.9,0,2.1,0.1,3.3,0.2c2.3,0.2,5.2,0.5,5.4-0.2c0-0.1,0-0.3,0-0.5c-0.1-0.3-0.2-0.7,0-1.2l0,0c0.2-0.5,0.6-0.7,0.9-0.9
						c0.3-0.2,0.6-0.3,0.8-0.7c0.1-0.2,0.1-0.3,0-0.6c0-0.3-0.1-0.8-0.1-1.6v-0.9h-33.9c-0.5,0-0.9,0.4-0.9,0.9v4
						c0,0.8,0.6,1.5,1.5,1.5c7.5,0.2,15.2,0.3,22.7,0.1C314,231.4,314.1,231.4,314.2,231.4z"/>
				</g>
				<g>
					<path class="st0" d="M324.8,221.4C324.8,221.4,324.8,221.4,324.8,221.4C324.7,221.4,324.7,221.4,324.8,221.4
						C324.7,221.4,324.7,221.4,324.8,221.4c-0.1,0-20.5,0-34.7,0c-0.2,0-0.4-0.2-0.4-0.4v-2.9v-2.2c0-0.7,0.5-1.2,1.2-1.2
						c11.5,0.2,23,0.5,34.5,0.7c0.1,0,0.8,0.2,1.1,1c0.4,0.8,0,1.6,0,1.7C325.9,219.2,325.3,220.3,324.8,221.4z"/>
					<path class="st0" d="M324.7,221.6h-34.6c-0.3,0-0.6-0.3-0.6-0.6v-5.1c0-0.4,0.1-0.7,0.4-1c0.3-0.3,0.6-0.4,1-0.4l34.5,0.7
						c0.3,0.1,0.9,0.3,1.2,1c0.4,0.9,0,1.7,0,1.8l-1.6,3.3c0,0.1-0.1,0.1-0.1,0.1L324.7,221.6z M290.8,214.9c-0.3,0-0.5,0.1-0.7,0.3
						c-0.2,0.2-0.3,0.4-0.3,0.7v5.1c0,0.2,0.1,0.3,0.3,0.3h34.6l1.6-3.3c0-0.1,0.4-0.8,0-1.5c-0.3-0.6-0.8-0.8-1-0.9L290.8,214.9
						C290.8,214.9,290.8,214.9,290.8,214.9z"/>
				</g>
				<g>
					<path class="st0" d="M330.2,206.8c-0.2,1.2-0.4,2.3-0.6,3.4c0,0-0.4,0.5-1.1,0.9c-2.4,1.2-34.2,0.4-38.8,0.3c0,0-0.1,0-0.1-0.1
						c-0.1-0.7-0.3-1.9,0-3.3c0.4-1.7,1.3-2.8,1.8-3.4c0,0,0,0,0.1,0c4.6-0.1,35.1-0.9,37.6,0.8C329.9,206,330.2,206.8,330.2,206.8z
						"/>
					<path class="st0" d="M313.4,211.9c-8.9,0-19.1-0.2-23.7-0.3c-0.1,0-0.2-0.1-0.2-0.2c-0.2-1.1-0.2-2.3,0-3.4
						c0.4-1.6,1.2-2.8,1.8-3.4c0-0.1,0.1-0.1,0.2-0.1c8.2-0.2,35.3-0.8,37.7,0.8c0.8,0.6,1.2,1.3,1.2,1.4l0,0l0,0
						c-0.2,1.1-0.4,2.3-0.6,3.4c0,0.1-0.6,0.7-1.2,1C327.5,211.7,321,211.9,313.4,211.9z M289.8,211.2c17.5,0.4,36.9,0.6,38.6-0.3
						c0.6-0.3,1-0.7,1.1-0.8c0.2-1.1,0.4-2.2,0.6-3.3c-0.1-0.2-0.4-0.8-1.1-1.2c-1.9-1.2-20.6-1.2-37.5-0.8
						c-0.6,0.7-1.3,1.7-1.7,3.3C289.6,209.1,289.6,210.2,289.8,211.2z M291.5,204.8C291.5,204.8,291.5,204.8,291.5,204.8
						C291.5,204.8,291.5,204.8,291.5,204.8z"/>
				</g>
				<g>
					<path class="st0" d="M329.4,196.4c0.6,0,1.1,0.5,1.2,1.1c0,0.6,0,1.3,0.1,1.9c0,0.5,0,1.1,0,1.6c0,0.6-0.5,1.1-1.1,1.1
						c-0.5,0-1.1,0-1.7,0c-11.4-0.1-22.9-0.3-34.3-0.6c-0.3,0-1.8,0.1-2.2-0.2c0,0,0,0,0,0c-0.1-0.3-0.8-1.8,0-3.3
						c0.5-1,1.3-1.5,1.7-1.7c0.1,0,0,0,0.1,0c0.1,0,0.1-0.1,0.2-0.1C305.3,196.3,317.4,196.4,329.4,196.4z"/>
					<path class="st0" d="M328.3,202.3c-0.2,0-0.3,0-0.5,0c-13-0.2-23.9-0.3-34.3-0.6c0,0-0.1,0-0.2,0c-0.8,0-1.7,0-2-0.3l0,0l0-0.1
						c-0.1-0.3-0.8-1.9,0-3.5c0.5-1,1.3-1.5,1.7-1.7c0,0,0.1-0.1,0.1-0.1c0,0,0.1-0.1,0.2-0.1l36.2,0.2c0.7,0,1.3,0.6,1.3,1.3
						c0,0.3,0,0.7,0,1c0,0.3,0,0.6,0,0.9c0,0.5,0,1.1,0,1.6c0,0.7-0.6,1.3-1.3,1.3C329.2,202.3,328.8,202.3,328.3,202.3z
						 M293.5,201.4C293.5,201.4,293.5,201.4,293.5,201.4c10.4,0.2,21.3,0.4,34.3,0.6c0.7,0,1.3,0,1.7,0c0.5,0,0.9-0.5,1-1
						c0-0.5,0-1.1,0-1.6c0-0.3,0-0.6,0-0.9c0-0.3,0-0.6,0-1c0-0.5-0.5-1-1-1l-36.2-0.2c0,0,0,0-0.1,0l0,0c0,0,0,0,0,0
						c-0.4,0.2-1.2,0.7-1.6,1.6c-0.7,1.4-0.2,2.8,0,3.2c0.3,0.2,1.4,0.2,1.8,0.2C293.3,201.4,293.4,201.4,293.5,201.4z"/>
				</g>
				<g>
					<path class="st0" d="M292.4,185c1.4-3,3.5-5.7,6-7.9c2.5-2.2,5.4-4,8.6-5c6.5-2,14-0.5,19.3,3.8c2.7,2.2,4.8,5,6.2,8.2
						c1.3,3.2,1.9,6.5,2.3,9.7c0.2,1.6,0.3,3.2,0.4,4.8c0.1,1.6,0.1,3.3,0,4.9c-0.1,3.3-0.6,6.5-1.4,9.8c-0.4,1.6-1,3.2-1.7,4.7
						c-0.7,1.5-1.3,2.8-1.7,4.2c-0.8,2.8-1.4,5.8-1.1,8.7c0.1,1.5,0.3,3.1,0.4,4.8c0.1,1.7-0.1,3.4-0.4,5c-0.5,3.2-1.3,6.4-2.7,9.4
						c-1.4,3-3.3,5.9-5.9,8c-2.6,2.1-5.7,3.6-8.9,4.3c-3.2,0.7-6.7,0.6-9.9-0.5c-3.2-1.1-5.9-3.2-7.9-5.9l0.1,0.1
						c-2.7-3.2-4.3-6.9-5.4-10.7c-1.1-3.8-1.8-7.7-2.2-11.6c-0.4-3.9-0.7-7.8-0.7-11.7c-0.1-3.9,0-7.9,0.3-11.7l0-0.1
						C286.7,201.7,288.5,193,292.4,185z M294.3,186c-3.8,7.5-5.8,16-6.6,24.5l0-0.1c-0.3,4-0.5,7.8-0.4,11.7c0,3.9,0.2,7.7,0.6,11.6
						c0.4,3.8,1.1,7.7,2.1,11.3c0.5,1.8,1.2,3.6,2,5.3c0.8,1.6,2,3.3,3.1,4.6l0.1,0.1c1.9,2.4,4.4,4.2,7.2,5.1
						c2.8,0.9,5.9,1,8.8,0.3c2.9-0.7,5.6-2.1,7.8-4.1c2.2-1.9,3.8-4.5,5-7.3c1.1-2.8,1.8-5.7,2.2-8.8c0.2-1.5,0.3-3,0.2-4.4
						c-0.1-1.5-0.4-3-0.5-4.6c-0.4-3.4,0.1-6.8,1-10c0.5-1.6,1.2-3.2,1.8-4.6c0.6-1.4,1.1-2.7,1.5-4.2c0.7-2.9,1.1-5.9,1.2-9
						c0-1.5,0-3-0.1-4.5c-0.1-1.5-0.2-3.1-0.4-4.6c-0.3-3-0.8-6-1.9-8.7c-1.1-2.6-2.7-5.1-4.9-6.9c-4.3-3.7-10.6-5.4-16.3-3.8
						c-2.8,0.7-5.5,2.2-7.8,4.1C297.7,181,295.7,183.3,294.3,186z"/>
				</g>
				<g>
					<path class="st0" d="M293,196.3c-0.1,0-0.1,0-0.2,0.1l0,0C292.9,196.3,293,196.3,293,196.3z"/>
				</g>
				<g>
					<path class="st0" d="M382,262.2c0,2.8-1.2,5.6-3.2,7.5c-1,1-2.2,1.7-3.5,2.2c-1.3,0.5-2.7,0.7-4,0.6c-2.7-0.1-5.3-1.3-7-3.2
						c-1.8-1.9-2.8-4.5-2.8-7c0-2.6,1-5.1,2.8-7c1.8-1.9,4.3-3.1,7-3.2c1.3-0.1,2.7,0.1,4,0.6c1.3,0.5,2.5,1.2,3.5,2.2
						C380.8,256.6,382,259.4,382,262.2z M380,262.2c0-2.3-0.9-4.5-2.5-6.2c-1.6-1.7-3.8-2.8-6.2-2.9c-1.2-0.1-2.4,0.1-3.5,0.5
						c-1.1,0.4-2.2,1.1-3.1,1.9c-1.8,1.7-2.9,4.2-2.9,6.7c0,2.5,1.1,5,2.9,6.7c0.9,0.8,2,1.5,3.1,1.9c1.1,0.4,2.4,0.6,3.5,0.5
						c2.4-0.1,4.6-1.2,6.2-2.9C379.1,266.7,380,264.4,380,262.2z"/>
				</g>
				<g>
					<path class="st0" d="M431.7,176.1c-1,1.7-2.3,3.1-3.9,4.1c-1.6,1-3.4,1.7-5.2,2c-1.8,0.3-3.7,0.2-5.5-0.2
						c-1.8-0.4-3.5-1.1-5-2.1c-3-1.9-5.3-4.9-6.4-8.2c-1.1-3.3-0.8-7.1,1-10.1c1.7-3,4.8-5.1,8.3-5.9c3.4-0.8,7.1-0.2,10.3,1.4
						c1.6,0.8,3,1.9,4.3,3.3c1.2,1.3,2.2,2.9,2.9,4.7c0.7,1.7,1,3.6,0.9,5.5C433.2,172.6,432.7,174.5,431.7,176.1z M429.4,174.7
						c1.5-2.6,1.8-5.8,0.8-8.8c-0.9-3-3-5.6-5.7-7.4c-1.4-0.9-2.9-1.5-4.5-1.9c-1.6-0.4-3.3-0.4-4.9-0.2c-1.6,0.3-3.2,0.8-4.6,1.7
						c-1.4,0.9-2.6,2.2-3.4,3.6c-0.8,1.4-1.3,3.1-1.4,4.8c-0.1,1.7,0.2,3.3,0.8,4.9c0.6,1.5,1.5,3,2.6,4.2c1.1,1.2,2.4,2.2,3.9,2.9
						c2.9,1.5,6.2,1.9,9.2,1.2C425.2,179.2,427.9,177.3,429.4,174.7z"/>
				</g>
				<g>
					<path class="st0" d="M432.7,236.9c-1.7,1.9-3.7,3.5-6,4.6c-2.3,1.1-4.8,1.7-7.3,1.7c-2.5,0.1-5-0.4-7.3-1.3
						c-2.3-0.9-4.4-2.2-6.2-3.9c-3.5-3.3-5.7-8-6-12.7c-0.1-2.4,0.1-4.7,0.9-6.9c0.7-2.2,1.9-4.3,3.4-6.1c1.5-1.8,3.4-3.2,5.5-4.3
						c2.1-1.1,4.4-1.7,6.7-1.9c4.7-0.4,9.6,1,13.4,4c1.9,1.5,3.5,3.4,4.8,5.5c1.2,2.2,2,4.6,2.3,7c0.3,2.5,0.1,5.1-0.6,7.5
						C435.7,232.6,434.4,234.9,432.7,236.9z M429.9,234.4c1.3-1.5,2.4-3.4,3-5.3c0.7-1.9,0.9-4,0.8-6.1c-0.2-4.2-2.1-8.3-5.2-11.3
						c-1.6-1.5-3.4-2.7-5.5-3.5c-2-0.8-4.3-1.2-6.5-1.2c-2.2,0-4.5,0.6-6.5,1.5c-2,0.9-3.9,2.3-5.4,4.1c-1.5,1.7-2.6,3.7-3.2,5.9
						c-0.6,2.2-0.8,4.4-0.5,6.7c0.3,2.2,1,4.4,2.1,6.3c1.1,1.9,2.6,3.6,4.3,4.9c3.4,2.7,7.8,3.9,11.9,3.5c2.1-0.2,4.1-0.8,5.9-1.7
						C427,237.3,428.6,236,429.9,234.4z"/>
				</g>
			</g>
			<g>
				<path class="st2" d="M375,89.9c-70.4,0-127.7,57.3-127.7,127.7c0,34,13.3,66,36.9,89.8c3.2,3.2,6.5,6.2,10,9.1v0
					c1,0.9,2.1,1.7,3.2,2.5c22.2,17,49.6,26.2,77.6,26.2c60.8,0,111.8-42.7,124.6-99.6c1.3-5.6,2.2-11.4,2.7-17.3
					c0.3-3.6,0.5-7.2,0.5-10.8C502.7,147.2,445.4,89.9,375,89.9z M482.4,253.9c-15.2,44.7-57.6,77.1-107.4,77.1
					c-20.9,0-41.4-5.8-59-16.6c-4.4-2.7-8.6-5.7-12.6-8.9c-0.8-0.7-1.6-1.3-2.4-2c-25-21.6-39.3-52.6-39.3-85.8
					c0-62.5,50.8-113.3,113.3-113.3s113.3,50.8,113.3,113.3c0,6.3-0.5,12.4-1.5,18.4C485.8,242.1,484.3,248.1,482.4,253.9z"/>
			</g>
			<g>
				<g>
					<path class="st2" d="M635,320c-2.2-5.9-6.5-10.7-12.2-13.3l-92.3-44c9.5-32.5,8.8-67.6-3.1-100.2
						c-14.7-40.4-44.2-72.6-83.2-90.8c-38.9-18.2-82.6-20.1-123-5.4c-40.4,14.7-72.6,44.2-90.8,83.2c-18.2,38.9-20.1,82.6-5.4,123
						c11.8,32.5,33.3,59.8,62.1,78.9l8-12c-26.2-17.4-45.7-42.2-56.5-71.9c-13.4-36.8-11.6-76.5,4.9-112
						c16.5-35.5,45.9-62.4,82.7-75.7c36.8-13.4,76.5-11.7,112,4.9c35.5,16.5,62.4,45.9,75.7,82.7c17.6,48.4,8.2,103.3-24.5,143.2
						c-16.6,20.2-38.4,35.6-63,44.6c-12.4,4.5-25.3,7.3-38.4,8.4l1.2,14.3c14.3-1.2,28.5-4.3,42.2-9.2c27.1-9.9,51-26.8,69.2-49
						c3.7-4.5,7.1-9.2,10.2-14.1l92,43.8c3.2,1.5,6.6,2.2,9.9,2.2c8.9,0,17.4-5.1,21.5-13.6C636.9,332.4,637.2,326,635,320z
						 M621.2,332c-2.2,4.6-7.7,6.6-12.2,4.5l-90.8-43.2c2.9-5.5,5.4-11.1,7.7-16.8l90.9,43.3c2.2,1,3.9,2.9,4.8,5.2
						C622.4,327.3,622.3,329.8,621.2,332z"/>
				</g>
				<g>
					<path class="st2" d="M536.8,226.2c-4.9,2.8-10,5.5-15.1,8.2c-7.2,3.8-14.6,7.6-22.1,11.3c-5.7,2.8-11.4,5.5-17.2,8.2
						c-6,2.8-12.1,5.5-18.2,8.2v0c-9,4-18.2,7.8-27.4,11.6c-11.6,4.7-23.4,9.3-35.1,13.5c-18.4,6.7-36.8,12.8-54.7,18.3
						c-3.5,1-6.9,2.1-10.3,3c-6.9,2-13.8,4-20.6,5.8c-6.3,1.7-12.4,3.2-18.5,4.7c-7.4,1.8-14.6,3.5-21.8,5
						c-5.7,1.2-11.3,2.4-16.9,3.4c-17,3.2-33.2,5.6-48.4,7.1c-10.3,1-21.2,1.7-32,1.7c-31.2,0-60.8-5.7-68.2-25.9
						c-14.1-38.7,68.6-89.7,106.1-110.4c0.4-0.2,0.7-0.4,1.1-0.6l6.9,12.6c-3.1,1.7-6.1,3.4-9,5.1c-70.7,40.4-97.1,73.3-91.6,88.5
						c3.9,10.8,28.4,20.3,85.2,14.8c12.3-1.2,25.4-3,39.1-5.4c5.2-0.9,10.6-1.9,16-3c6.6-1.3,13.3-2.8,20.1-4.4
						c5.5-1.3,11.1-2.6,16.7-4.1c6-1.5,12-3.1,18.1-4.8c1.8-0.5,3.6-1,5.4-1.5c23.5-6.6,47.8-14.5,72.3-23.4
						c18.3-6.7,35.8-13.6,52.3-20.6c7.6-3.2,14.9-6.5,22.1-9.7c5.4-2.4,10.6-4.9,15.7-7.3c5.3-2.5,10.4-5.1,15.4-7.6
						c7.1-3.6,13.9-7.1,20.5-10.7c4.9-2.7,9.6-5.3,14.2-8c62.3-35.9,95.8-69.5,89.3-87.2c-5.5-15.2-46.9-23.4-127.1-8.9
						c-4.1,0.8-8.3,1.6-12.7,2.4l-2.8-14.1c1.2-0.2,2.5-0.5,3.8-0.8c44-8.5,138.3-22,152.3,16.4
						C650.6,147.5,604.5,188.3,536.8,226.2z"/>
				</g>
			</g>
		</g>
		<g>
			<path class="st0" d="M279.6,448.4h-42v-13.8h42V448.4z"/>
			<g>
				<path class="st0" d="M225.9,491.3h-68.8v-99.7h15.8V477h53V491.3z"/>
				<path class="st0" d="M321.6,491.3H306v-99.7h15.7v39.3h52v-39.3h15.7v99.7h-15.7v-46h-52V491.3z"/>
				<path class="st0" d="M486.9,491.3h-72.8v-99.7h71V406h-55.3v24.9h45v14.4h-45V477h57.1V491.3z"/>
				<path class="st0" d="M513.7,491.3h-18.2l39.5-54l-33.2-45.7h18.5l24.1,33.1l24.1-33.1h18.2l-33.3,45.5l39.6,54.3h-18.7
					l-30.2-41.5L513.7,491.3z"/>
			</g>
		</g>
	</g>
</g>
<g id="L-EXPLO">
</g>
</svg>
