<?xml version="1.0" encoding="utf-8"?>
<!-- Generator: Adobe Illustrator 24.3.0, SVG Export Plug-In . SVG Version: 6.00 Build 0)  -->
<svg version="1.1" xmlns="http://www.w3.org/2000/svg" xmlns:xlink="http://www.w3.org/1999/xlink" x="0px" y="0px"
	 viewBox="0 0 750 550" style="enable-background:new 0 0 750 550;" xml:space="preserve">
<style type="text/css">
	.st0{fill:#534998;}
	.st1{fill:#C68F0A;}
	.st2{fill:#C58E0A;}
	.st3{fill:#544897;}
	.st4{fill:#FFFFFF;}
	.st5{fill:none;}
</style>
<g id="G-ARCH">
</g>
<g id="G-TOMO">
</g>
<g id="S-PHOT">
</g>
<g id="S-DISCO">
</g>
<g id="L-HEX">
</g>
<g id="L-EXPLO">
	<g>
		<g>
			<path class="st0" d="M135.1,491.6H65.7V391.1h15.9v86h53.4V491.6z"/>
			<path class="st0" d="M189.2,448.3h-42.4v-13.9h42.4V448.3z"/>
			<path class="st0" d="M289.2,491.6h-73.4V391.1h71.5v14.5h-55.7v25.1H277v14.5h-45.4v31.9h57.6V491.6z"/>
			<path class="st0" d="M316.2,491.6h-18.4l39.8-54.4l-33.5-46.1h18.7l24.3,33.3l24.3-33.3h18.4l-33.6,45.8l39.9,54.7h-18.8
				l-30.5-41.8L316.2,491.6z"/>
			<path class="st0" d="M426.6,491.6h-15.8V391.1h43.2c10.5,0,18.7,2.7,24.6,8.2c6,5.3,9,12.3,9,21c0,8.7-3,15.9-9,21.5
				c-5.8,5.6-14,8.3-24.6,8.3h-27.4V491.6z M426.6,405.6v30h26.1c5.9,0,10.6-1.3,13.9-3.9c3.4-2.6,5-6.3,5-11.1
				c0-4.8-1.7-8.5-5-11.1c-3.3-2.6-8-3.9-14-3.9H426.6z"/>
			<path class="st0" d="M575.3,491.6h-69.4V391.1h15.9v86h53.4V491.6z"/>
			<path class="st0" d="M669.5,478.5c-9.8,10-22,14.9-36.8,14.9c-14.7,0-27-5-36.8-14.9c-9.7-10.1-14.5-22.5-14.5-37.2
				c0-14.7,4.8-27.1,14.5-37.1c9.8-10.1,22-15.1,36.8-15.1c14.7,0,27,5,36.8,15.1c9.8,10,14.6,22.3,14.6,37.1
				C684.1,456.1,679.3,468.5,669.5,478.5z M607.7,468.1c6.8,7.1,15.1,10.6,25,10.6c9.9,0,18.2-3.5,25-10.6
				c6.8-7.3,10.2-16.2,10.2-26.7c0-10.6-3.4-19.5-10.2-26.6c-6.8-7.2-15.1-10.8-25-10.8c-9.9,0-18.2,3.6-25,10.8
				c-6.7,7-10.1,15.8-10.1,26.6C597.7,452.1,601,461,607.7,468.1z"/>
		</g>
		<g>
			<g>
				<g>
					<g>
						<path class="st0" d="M374.2,116.8c-5.3-0.1-10.5,0.3-15.6,1c48.6,8,71.1,49.8,70.5,100.5c-0.6,50.8-24,93.1-72.8,100.1
							c5.1,0.8,10.3,1.3,15.6,1.4c56.1,0.6,102-44.3,102.6-100.4S430.2,117.4,374.2,116.8z"/>
					</g>
					<g>
						<path class="st0" d="M350,180.4c-1.1,0.5-2.2,1.1-3.2,1.7c11-3,19.8,3.6,24.6,14.3s4,21.9-5.6,28.2c1.2-0.3,2.3-0.7,3.4-1.2
							c11.9-5.3,17.2-19.3,11.8-31.1C375.8,180.4,361.9,175,350,180.4z"/>
					</g>
					<g>
						<path class="st0" d="M348.6,194c-0.6,0.3-1.1,0.6-1.6,0.9c5.7-1.6,10.3,1.8,12.7,7.4c2.5,5.6,2.1,11.4-2.9,14.6
							c0.6-0.2,1.2-0.4,1.8-0.6c6.1-2.8,8.9-10,6.1-16.1C361.9,194,354.7,191.3,348.6,194z"/>
					</g>
					<g>
						<path class="st1" d="M286.7,171.5c0.2-0.1,0.4-0.3,0.6-0.4l22.4-10.8c1.7-0.8,3.7-0.1,4.5,1.6l15.3,31.7
							c0.8,1.7,0.1,3.7-1.6,4.5l-8,3.8l2.3,4.8c3.7-1.7,7.4-2.8,10.8-3.2c4.9,4.5,8.4,11.2,9.6,18.2c-2.1,2.2-4.9,4.3-8,6.1l1.7,3.4
							l8.4-4.1c1.7-0.8,3.7-0.1,4.5,1.6l15.3,31.7c0.8,1.7,0.1,3.7-1.6,4.5l-22.4,10.8c-1.7,0.8-3.7,0.1-4.5-1.6l-15.3-31.7
							c-0.8-1.7-0.1-3.7,1.6-4.5l8-3.9l-1.7-3.5c-0.6,0.2-1.1,0.4-1.7,0.6c-9.4,3-12.5,3.7-16.3-5.4s-2.6-9.4,4.5-14.7
							c0.5-0.4,1-0.7,1.5-1.1l-2.5-5.2l-8.5,4.1c-1.7,0.8-3.7,0.1-4.5-1.6l-15.3-31.7c-0.1-0.2-0.2-0.4-0.2-0.7
							C285.2,173.6,285.7,172.3,286.7,171.5z"/>
					</g>
					<g>
						<path class="st4" d="M304.8,175.7l-3.2-7.1c-0.3-0.7,0-1.6,0.7-1.9l6.5-2.9c0.7-0.3,1.6,0,1.9,0.7l3.2,7.1
							c0.3,0.7,0,1.6-0.7,1.9l-6.5,2.9C305.9,176.7,305.1,176.4,304.8,175.7z"/>
					</g>
					<g>
						<path class="st4" d="M310.4,186.7l-3.2-7.1c-0.3-0.7,0-1.6,0.7-1.9l6.5-2.9c0.7-0.3,1.6,0,1.9,0.7l3.2,7.1
							c0.3,0.7,0,1.6-0.7,1.9l-6.5,2.9C311.5,187.8,310.7,187.4,310.4,186.7z"/>
					</g>
					<g>
						<path class="st4" d="M316,197.8l-3.2-7.1c-0.3-0.7,0-1.6,0.7-1.9l6.5-2.9c0.7-0.3,1.6,0,1.9,0.7l3.2,7.1
							c0.3,0.7,0,1.6-0.7,1.9l-6.5,2.9C317.2,198.8,316.3,198.5,316,197.8z"/>
					</g>
					<g>
						<path class="st4" d="M293.4,181.5l-3.2-7.1c-0.3-0.7,0-1.6,0.7-1.9l6.5-2.9c0.7-0.3,1.6,0,1.9,0.7l3.2,7.1
							c0.3,0.7,0,1.6-0.7,1.9l-6.5,2.9C294.5,182.5,293.7,182.2,293.4,181.5z"/>
					</g>
					<g>
						<path class="st4" d="M299,192.5l-3.2-7.1c-0.3-0.7,0-1.6,0.7-1.9l6.5-2.9c0.7-0.3,1.6,0,1.9,0.7l3.2,7.1
							c0.3,0.7,0,1.6-0.7,1.9l-6.5,2.9C300.1,193.6,299.3,193.3,299,192.5z"/>
					</g>
					<g>
						<path class="st4" d="M304.6,203.6l-3.2-7.1c-0.3-0.7,0-1.6,0.7-1.9l6.5-2.9c0.7-0.3,1.6,0,1.9,0.7l3.2,7.1
							c0.3,0.7,0,1.6-0.7,1.9l-6.5,2.9C305.8,204.6,304.9,204.3,304.6,203.6z"/>
					</g>
					<g>
						<path class="st4" d="M339.9,243.9l-3.1-7c-0.3-0.7,0-1.5,0.7-1.8l6.4-2.9c0.7-0.3,1.5,0,1.8,0.7l3.1,7c0.3,0.7,0,1.5-0.7,1.8
							l-6.4,2.9C341.1,244.9,340.2,244.6,339.9,243.9z"/>
					</g>
					<g>
						<path class="st4" d="M345.5,254.8l-3.1-7c-0.3-0.7,0-1.5,0.7-1.8l6.4-2.9c0.7-0.3,1.5,0,1.8,0.7l3.1,7c0.3,0.7,0,1.5-0.7,1.8
							l-6.4,2.9C346.6,255.8,345.8,255.5,345.5,254.8z"/>
					</g>
					<g>
						<path class="st4" d="M351,265.7l-3.1-7c-0.3-0.7,0-1.5,0.7-1.8l6.4-2.9c0.7-0.3,1.5,0,1.8,0.7l3.1,7c0.3,0.7,0,1.5-0.7,1.8
							l-6.4,2.9C352.2,266.7,351.3,266.4,351,265.7z"/>
					</g>
					<g>
						<path class="st4" d="M328.7,249.6l-3.1-7c-0.3-0.7,0-1.5,0.7-1.8l6.4-2.9c0.7-0.3,1.5,0,1.8,0.7l3.1,7c0.3,0.7,0,1.5-0.7,1.8
							l-6.4,2.9C329.8,250.6,329,250.3,328.7,249.6z"/>
					</g>
					<g>
						<path class="st4" d="M334.2,260.5l-3.1-7c-0.3-0.7,0-1.5,0.7-1.8l6.4-2.9c0.7-0.3,1.5,0,1.8,0.7l3.1,7c0.3,0.7,0,1.5-0.7,1.8
							l-6.4,2.9C335.4,261.5,334.5,261.2,334.2,260.5z"/>
					</g>
					<g>
						<path class="st4" d="M339.8,271.4l-3.1-7c-0.3-0.7,0-1.5,0.7-1.8l6.4-2.9c0.7-0.3,1.5,0,1.8,0.7l3.1,7c0.3,0.7,0,1.5-0.7,1.8
							l-6.4,2.9C340.9,272.4,340.1,272.1,339.8,271.4z"/>
					</g>
				</g>
				<g>
					<path class="st4" d="M458.2,206.2c-0.4-0.2-0.9-0.5-1.3-0.7c-0.4-0.2-0.9-0.4-1.4-0.5c-0.5-0.2-0.9-0.3-1.4-0.4
						c-1.9-0.4-3.9-0.5-5.8-0.1c-1.9,0.3-3.7,1.1-5.3,2.1c-1.6,1-2.9,2.4-4,4c-1,1.5-1.7,3.3-2.1,5.1c-0.4,1.8-0.4,3.6-0.1,5.4
						c0.3,1.8,0.6,1.7,0.4-0.1c-0.2-1.7,0-3.5,0.5-5.2c0.5-1.7,1.3-3.2,2.4-4.5c2.2-2.6,5.3-4.2,8.5-4.6c1.6-0.2,3.3-0.1,4.8,0.4
						c1.6,0.4,3,1.1,4.3,2.1c1.3,1,2.4,2.1,3.2,3.5c0.1,0.1,0.1,0.2,0.2,0.3c0.6,1,1,2.1,1.3,3.2c0.1,0.3,0.2,0.7,0.2,1
						c0.6,3.2,0,6.7-1.9,9.5c-0.6,1-1.4,1.9-2.3,2.7c-0.4,0.3-0.8,0.7-1.2,0.9c-0.5,0.4-1.1,0.7-1.7,0.9c-1,0.5-2.1,0.8-3.1,1
						c-1.7,0.3-1.7,0.6,0.1,0.4c0.9-0.1,1.9-0.3,2.8-0.6c0.8-0.3,1.6-0.6,2.4-1c0.1-0.1,0.2-0.1,0.3-0.2c1.5-0.8,2.8-2,3.9-3.3
						c1.2-1.4,2.1-3.1,2.6-5c0.5-1.8,0.7-3.8,0.5-5.7c-0.2-1.7-0.7-3.3-1.5-4.8l0,0c-0.1-0.2-0.2-0.4-0.3-0.6
						c-0.3-0.4-0.5-0.8-0.8-1.2c-0.1-0.2-0.3-0.4-0.4-0.6c-0.2-0.2-0.3-0.4-0.5-0.6c-0.3-0.3-0.7-0.7-1-1l-1.1-0.9L458.2,206.2z"/>
				</g>
				<g>
					<path class="st4" d="M441.8,160.5c0,1.4-0.3,2.8-0.8,4.1c-0.6,1.3-1.4,2.4-2.4,3.4c-1,1-2.2,1.7-3.5,2.2
						c-1.3,0.5-2.7,0.7-4,0.6c-2.7-0.1-5.3-1.3-7.1-3.2c-1.8-1.9-2.8-4.5-2.8-7.1c0-2.6,1-5.2,2.8-7.1c1.8-1.9,4.4-3.1,7.1-3.2
						c1.3-0.1,2.7,0.1,4,0.6c1.3,0.5,2.5,1.2,3.5,2.2c1,1,1.8,2.1,2.4,3.4C441.5,157.7,441.8,159.1,441.8,160.5z M439.8,160.5
						c0-2.3-0.9-4.5-2.5-6.2c-1.6-1.7-3.8-2.8-6.2-2.9c-1.2-0.1-2.4,0.1-3.6,0.5c-1.1,0.4-2.2,1.1-3.1,1.9c-0.9,0.9-1.6,1.9-2.1,3
						c-0.5,1.1-0.8,2.4-0.8,3.6c0,1.3,0.3,2.5,0.8,3.6c0.5,1.1,1.2,2.2,2.1,3c0.9,0.9,2,1.5,3.1,1.9c1.1,0.4,2.4,0.6,3.6,0.5
						c2.4-0.1,4.7-1.2,6.2-2.9C438.9,165,439.8,162.7,439.8,160.5z"/>
				</g>
				<g>
					<path class="st4" d="M442.7,239.2c0,0.8-0.2,1.6-0.5,2.4c-0.3,0.8-0.8,1.4-1.4,2c-1.2,1.1-2.8,1.7-4.4,1.6
						c-1.6-0.1-3.1-0.8-4.1-1.9c-1-1.1-1.6-2.6-1.6-4.1c0-1.5,0.6-3,1.6-4.1c1-1.1,2.5-1.8,4.1-1.9c1.6-0.1,3.2,0.5,4.4,1.6
						c0.6,0.6,1.1,1.2,1.4,2C442.5,237.6,442.7,238.4,442.7,239.2z M441.5,239.2c0-1.3-0.5-2.6-1.4-3.6c-0.9-1-2.2-1.6-3.6-1.7
						c-1.4-0.1-2.8,0.4-3.9,1.4c-0.5,0.5-1,1.1-1.2,1.8c-0.3,0.7-0.4,1.4-0.4,2.1c0,0.7,0.2,1.5,0.4,2.1c0.3,0.7,0.7,1.3,1.2,1.8
						c1.1,1,2.5,1.5,3.9,1.4c1.4-0.1,2.7-0.7,3.6-1.7C441,241.9,441.5,240.6,441.5,239.2z"/>
				</g>
			</g>
			<g>
				<path class="st2" d="M374.9,345.2c-29.4,0-58.1-10.2-80.8-28.8v0c-29.8-24.4-46.9-60.4-46.9-98.9c0-70.4,57.3-127.7,127.7-127.7
					c70.4,0,127.7,57.3,127.7,127.7C502.6,287.9,445.3,345.2,374.9,345.2z M303.2,305.2c20.1,16.5,45.6,25.5,71.7,25.5
					c62.5,0,113.3-50.8,113.3-113.3s-50.8-113.3-113.3-113.3c-62.5,0-113.3,50.8-113.3,113.3C261.6,251.6,276.8,283.6,303.2,305.2
					L303.2,305.2z"/>
			</g>
			<g>
				<path class="st2" d="M634.9,319.9c-2.2-5.9-6.5-10.7-12.2-13.3l-92.3-44c9.5-32.5,8.8-67.6-3.1-100.2
					c-14.7-40.4-44.2-72.6-83.2-90.8c-38.9-18.2-82.6-20.1-123-5.4c-40.4,14.7-72.6,44.2-90.8,83.2c-18.2,38.9-20.1,82.6-5.4,123
					c11.8,32.5,33.3,59.8,62.1,78.9l8-12c-26.2-17.4-45.7-42.2-56.5-71.9c-13.4-36.8-11.6-76.5,4.9-112
					c16.5-35.5,45.9-62.4,82.7-75.7c36.8-13.4,76.5-11.7,112,4.9c35.5,16.5,62.4,45.9,75.7,82.7c17.6,48.4,8.2,103.3-24.5,143.2
					c-16.6,20.2-38.4,35.6-63,44.6c-12.4,4.5-25.3,7.3-38.4,8.4l1.2,14.3c14.3-1.2,28.5-4.3,42.2-9.2c27.1-9.9,51-26.8,69.2-49
					c3.7-4.5,7.1-9.2,10.2-14.1l92,43.8c3.2,1.5,6.6,2.2,9.9,2.2c8.9,0,17.4-5.1,21.5-13.6C636.8,332.3,637.1,325.8,634.9,319.9z
					 M621.1,331.9c-2.2,4.6-7.7,6.6-12.2,4.5l-90.8-43.2c2.9-5.5,5.4-11.1,7.7-16.8l90.9,43.3c2.2,1,3.9,2.9,4.8,5.2
					C622.3,327.2,622.2,329.7,621.1,331.9z"/>
			</g>
			<g>
				<path class="st2" d="M178.3,336c-31.2,0-60.8-5.7-68.1-25.9c-14.2-39.1,70.2-90.7,107.2-111l6.9,12.6
					c-77.5,42.7-106.4,77.7-100.6,93.5c3.9,10.8,28.4,20.3,85.2,14.8c52.7-5.1,119.4-21.6,187.7-46.5
					c148.1-53.9,239.8-122.9,229.5-151.2c-5.8-16-51.3-24.2-139.8-6.4l-2.8-14.1c42.1-8.5,141.7-23.9,156.1,15.6
					C657,165,529.9,240.3,401.6,287c-69.5,25.3-137.4,42.1-191.3,47.3C200,335.4,189.1,336,178.3,336z"/>
			</g>
		</g>
	</g>
</g>
</svg>
